<?xml version="1.0" encoding="UTF-8" standalone="no"?>
<!-- Created with Inkscape (http://www.inkscape.org/) -->

<svg
   version="1.1"
   id="svg1"
   width="467.41333"
   height="173.82668"
   viewBox="0 0 467.41333 173.82668"
   sodipodi:docname="FC_stacked_groundwork.eps"
   xmlns:inkscape="http://www.inkscape.org/namespaces/inkscape"
   xmlns:sodipodi="http://sodipodi.sourceforge.net/DTD/sodipodi-0.dtd"
   xmlns="http://www.w3.org/2000/svg"
   xmlns:svg="http://www.w3.org/2000/svg">
  <defs
     id="defs1" />
  <sodipodi:namedview
     id="namedview1"
     pagecolor="#ffffff"
     bordercolor="#000000"
     borderopacity="0.25"
     inkscape:showpageshadow="2"
     inkscape:pageopacity="0.0"
     inkscape:pagecheckerboard="0"
     inkscape:deskcolor="#d1d1d1">
    <inkscape:page
       x="0"
       y="0"
       inkscape:label="1"
       id="page1"
       width="467.41333"
       height="173.82668"
       margin="0"
       bleed="0" />
  </sodipodi:namedview>
  <g
     id="g1"
     inkscape:groupmode="layer"
     inkscape:label="1">
    <g
       id="group-R5">
      <path
         id="path2"
         d="m 1140.21,1098.86 v -19.09 h 96.12 v -74.98 h -96.12 V 743.031 h -90.65 v 261.759 h -62.037 v 74.98 h 62.037 v 19.09 c 0,89.98 60.66,130.88 129.51,130.88 33.4,0 63.4,-9.54 90.67,-29.99 l -32.04,-59.99 c -16.36,10.23 -30,16.36 -47.72,16.36 -29.31,0 -49.77,-17.72 -49.77,-57.26"
         style="fill:#f1e8cb;fill-opacity:1;fill-rule:nonzero;stroke:none"
         transform="matrix(0.13333333,0,0,-0.13333333,0,173.82667)" />
      <path
         id="path3"
         d="M 1618.75,1079.77 V 743.031 h -78.39 l -6.15,38.856 c -26.58,-29.313 -65.43,-45.676 -109.73,-45.676 -83.86,0 -139.07,59.98 -139.07,155.422 v 188.137 h 90.67 V 897.086 c 0,-51.813 27.95,-81.809 71.56,-81.809 48.4,0 80.45,36.133 80.45,87.938 v 176.555 h 90.66"
         style="fill:#f1e8cb;fill-opacity:1;fill-rule:nonzero;stroke:none"
         transform="matrix(0.13333333,0,0,-0.13333333,0,173.82667)" />
      <path
         id="path4"
         d="M 2042.07,931.16 V 743.031 h -90.67 v 182.684 c 0,51.805 -27.95,81.805 -72.93,81.805 -49.08,0 -81.81,-36.137 -81.81,-87.942 V 743.031 H 1706 v 336.739 h 78.39 l 6.14,-38.86 c 26.58,29.32 66.12,45.67 110.43,45.67 85.89,0 141.11,-59.98 141.11,-155.42"
         style="fill:#f1e8cb;fill-opacity:1;fill-rule:nonzero;stroke:none"
         transform="matrix(0.13333333,0,0,-0.13333333,0,173.82667)" />
      <path
         id="path5"
         d="m 2378.81,911.402 c 0,56.575 -38.17,96.798 -92.7,96.798 -53.85,0 -92.04,-40.223 -92.04,-96.798 0,-56.586 38.19,-96.808 92.04,-96.808 54.53,0 92.7,40.222 92.7,96.808 z m 89.98,308.798 V 743.031 h -78.39 l -6.13,40.895 c -27.27,-31.352 -68.17,-48.399 -116.56,-48.399 -96.8,0 -163.61,72.258 -163.61,175.875 0,103.618 66.81,175.868 163.61,175.868 44.3,0 83.15,-14.99 110.42,-41.58 v 174.51 h 90.66"
         style="fill:#f1e8cb;fill-opacity:1;fill-rule:nonzero;stroke:none"
         transform="matrix(0.13333333,0,0,-0.13333333,0,173.82667)" />
      <path
         id="path6"
         d="m 2556.05,1079.77 h 90.67 V 743.031 h -90.67 z m -9.54,94.07 c 0,31.36 23.17,53.18 55.2,53.18 32.05,0 55.91,-21.82 55.91,-53.18 0,-29.99 -23.86,-51.8 -55.91,-51.8 -32.03,0 -55.2,21.81 -55.2,51.8"
         style="fill:#f1e8cb;fill-opacity:1;fill-rule:nonzero;stroke:none"
         transform="matrix(0.13333333,0,0,-0.13333333,0,173.82667)" />
      <path
         id="path7"
         d="M 3070.02,931.16 V 743.031 h -90.66 v 182.684 c 0,51.805 -27.95,81.805 -72.94,81.805 -49.08,0 -81.8,-36.137 -81.8,-87.942 V 743.031 h -90.67 v 336.739 h 78.4 l 6.13,-38.86 c 26.59,29.32 66.13,45.67 110.43,45.67 85.89,0 141.11,-59.98 141.11,-155.42"
         style="fill:#f1e8cb;fill-opacity:1;fill-rule:nonzero;stroke:none"
         transform="matrix(0.13333333,0,0,-0.13333333,0,173.82667)" />
      <path
         id="path8"
         d="m 3407.45,918.223 c 0,54.527 -36.8,90.647 -92.7,90.647 -55.9,0 -92.71,-36.12 -92.71,-90.647 0,-53.18 37.5,-89.989 92.71,-89.989 55.9,0 92.7,36.809 92.7,89.989 z m 12.28,-125.438 c 49.08,-20.441 77.03,-57.941 77.03,-107.012 0,-85.214 -71.58,-140.433 -182.01,-140.433 -113.84,0 -185.41,62.723 -179.28,154.738 h 87.93 c -1.36,-47.031 33.41,-76.348 91.35,-76.348 53.85,0 89.98,25.911 89.98,64.083 0,38.855 -32.72,61.347 -88.62,61.347 -112.48,0 -184.05,66.117 -184.05,169.063 0,98.837 75.67,169.727 182.01,169.727 31.35,0 60.67,-6.81 84.52,-19.77 l 41.59,51.13 65.44,-49.08 -45.67,-53.85 c 25.9,-29.989 36.81,-59.985 36.81,-98.157 0,-55.231 -27.27,-99.532 -77.03,-125.438"
         style="fill:#f1e8cb;fill-opacity:1;fill-rule:nonzero;stroke:none"
         transform="matrix(0.13333333,0,0,-0.13333333,0,173.82667)" />
      <path
         id="path9"
         d="m 677.363,366.063 c 0,104.976 72.93,175.867 181.321,175.867 49.765,0 93.39,-17.723 129.523,-52.481 l -52.496,-56.582 c -19.086,19.086 -45.664,29.992 -73.613,29.992 -55.903,0 -94.758,-39.539 -94.758,-96.796 0,-57.27 38.183,-96.801 94.758,-96.801 29.996,0 57.261,11.59 77.711,32.718 l 53.16,-57.25 c -38.172,-36.808 -81.106,-54.539 -132.918,-54.539 -111.113,0 -182.688,68.848 -182.688,175.872"
         style="fill:#f1e8cb;fill-opacity:1;fill-rule:nonzero;stroke:none"
         transform="matrix(0.13333333,0,0,-0.13333333,0,173.82667)" />
      <path
         id="path10"
         d="M 1385.62,385.824 V 197.691 h -90.67 v 182.688 c 0,51.805 -26.58,81.801 -71.57,81.801 -49.75,0 -83.17,-35.453 -83.17,-87.254 V 197.691 h -90.65 v 427.176 h 90.65 V 496.262 c 25.91,29.312 61.36,44.984 105.66,44.984 85.9,0 139.75,-60.664 139.75,-155.422"
         style="fill:#f1e8cb;fill-opacity:1;fill-rule:nonzero;stroke:none"
         transform="matrix(0.13333333,0,0,-0.13333333,0,173.82667)" />
      <path
         id="path11"
         d="m 1722.36,366.063 c 0,56.578 -38.17,96.796 -92.7,96.796 -53.85,0 -92.03,-40.218 -92.03,-96.796 0,-56.586 38.18,-96.801 92.03,-96.801 54.53,0 92.7,40.215 92.7,96.801 z m 89.99,168.371 V 197.691 h -78.39 l -6.13,40.899 c -27.96,-31.352 -68.85,-48.399 -116.57,-48.399 -96.8,0 -163.61,72.258 -163.61,175.872 0,103.621 66.81,175.867 163.61,175.867 47.72,0 89.3,-17.039 116.57,-47.715 l 6.13,40.219 h 78.39"
         style="fill:#f1e8cb;fill-opacity:1;fill-rule:nonzero;stroke:none"
         transform="matrix(0.13333333,0,0,-0.13333333,0,173.82667)" />
      <path
         id="path12"
         d="M 2235.66,385.824 V 197.691 h -90.65 v 182.688 c 0,51.805 -27.95,81.801 -72.95,81.801 -49.08,0 -81.79,-36.133 -81.79,-87.938 V 197.691 h -90.67 v 336.743 h 78.4 l 6.13,-38.856 c 26.59,29.313 66.12,45.668 110.43,45.668 85.89,0 141.1,-59.98 141.1,-155.422"
         style="fill:#f1e8cb;fill-opacity:1;fill-rule:nonzero;stroke:none"
         transform="matrix(0.13333333,0,0,-0.13333333,0,173.82667)" />
      <path
         id="path13"
         d="m 2573.11,372.887 c 0,54.523 -36.81,90.648 -92.71,90.648 -55.91,0 -92.71,-36.125 -92.71,-90.648 0,-53.184 37.49,-89.989 92.71,-89.989 55.9,0 92.71,36.805 92.71,89.989 z m 12.27,-125.438 c 49.07,-20.437 77.03,-57.937 77.03,-107.019 C 2662.41,55.2188 2590.83,0 2480.4,0 2366.55,0 2294.99,62.7188 2301.12,154.738 h 87.93 c -1.36,-47.027 33.4,-76.3474 91.35,-76.3474 53.85,0 89.97,25.9104 89.97,64.0784 0,38.859 -32.71,61.351 -88.61,61.351 -112.48,0 -184.06,66.121 -184.06,169.067 0,98.836 75.67,169.722 182.01,169.722 31.36,0 60.67,-6.808 84.53,-19.765 l 41.58,51.129 65.45,-49.082 -45.68,-53.852 c 25.91,-29.988 36.82,-59.98 36.82,-98.152 0,-55.231 -27.27,-99.528 -77.03,-125.438"
         style="fill:#f1e8cb;fill-opacity:1;fill-rule:nonzero;stroke:none"
         transform="matrix(0.13333333,0,0,-0.13333333,0,173.82667)" />
      <path
         id="path14"
         d="m 2808.29,396.051 h 173.14 c -3.41,43.637 -36.12,70.898 -86.57,70.898 -47.72,0 -79.76,-25.898 -86.57,-70.898 z m 258.34,-59.985 h -259.71 c 6.14,-42.257 42.95,-70.207 97.48,-70.207 36.12,0 72.26,12.27 94.07,32.039 l 50.44,-51.808 c -35.44,-36.129 -89.3,-57.262 -147.91,-57.262 -113.85,0 -186.1,68.844 -186.1,176.555 0,104.98 71.57,175.863 177.23,175.863 122.03,0 189.51,-80.433 174.5,-205.18"
         style="fill:#f1e8cb;fill-opacity:1;fill-rule:nonzero;stroke:none"
         transform="matrix(0.13333333,0,0,-0.13333333,0,173.82667)" />
      <path
         id="path15"
         d="M 443.602,197.691 H 321.078 V 587.75 c 0,86.34 -70.246,156.574 -156.586,156.574 H 0 v 122.52 h 164.492 c 153.906,0 279.11,-125.199 279.11,-279.094 V 197.691"
         style="fill:#f1e8cb;fill-opacity:1;fill-rule:nonzero;stroke:none"
         transform="matrix(0.13333333,0,0,-0.13333333,0,173.82667)" />
      <path
         id="path16"
         d="M 715.035,744.324 H 600.746 c -154.203,0 -279.668,125.465 -279.668,279.666 0,154.21 125.465,279.67 279.668,279.67 v -122.52 c -86.648,0 -157.144,-70.5 -157.144,-157.15 0,-86.646 70.496,-157.146 157.144,-157.146 h 114.289 v -122.52"
         style="fill:#f1e8cb;fill-opacity:1;fill-rule:nonzero;stroke:none"
         transform="matrix(0.13333333,0,0,-0.13333333,0,173.82667)" />
    </g>
  </g>
</svg>
